<?xml version="1.0" encoding="UTF-8"?>
<svg width="32" height="32" viewBox="0 0 1024 1024" xmlns="http://www.w3.org/2000/svg" role="img" aria-labelledby="title desc">
  <title id="title">Unity Texture Generator UG Brandmark – Vector with Background</title>
  <desc id="desc">Recreated as vector paths only. Transparent outer canvas with the icon background rebuilt as vector shapes; no raster image, PNG, or JPG is embedded.</desc>
  <defs>
    <clipPath id="iconBackgroundClip">
      <rect x="3" y="3" width="1018" height="1018" rx="108" ry="108"/>
    </clipPath>
    <linearGradient id="iconBackgroundBase" x1="120" y1="55" x2="900" y2="980" gradientUnits="userSpaceOnUse">
      <stop offset="0" stop-color="#111728"/>
      <stop offset="0.23" stop-color="#080D18"/>
      <stop offset="0.58" stop-color="#060912"/>
      <stop offset="1" stop-color="#02040A"/>
    </linearGradient>
    <radialGradient id="iconBackgroundCyanGlow" cx="238" cy="545" r="510" gradientUnits="userSpaceOnUse">
      <stop offset="0" stop-color="#05F4E9" stop-opacity="0.17"/>
      <stop offset="0.32" stop-color="#0B9BFF" stop-opacity="0.10"/>
      <stop offset="0.74" stop-color="#082047" stop-opacity="0.05"/>
      <stop offset="1" stop-color="#000000" stop-opacity="0"/>
    </radialGradient>
    <radialGradient id="iconBackgroundBlueGlow" cx="620" cy="280" r="560" gradientUnits="userSpaceOnUse">
      <stop offset="0" stop-color="#2542FF" stop-opacity="0.12"/>
      <stop offset="0.45" stop-color="#17337E" stop-opacity="0.07"/>
      <stop offset="1" stop-color="#000000" stop-opacity="0"/>
    </radialGradient>
    <radialGradient id="iconBackgroundVioletGlow" cx="742" cy="520" r="430" gradientUnits="userSpaceOnUse">
      <stop offset="0" stop-color="#A224FF" stop-opacity="0.12"/>
      <stop offset="0.45" stop-color="#48218F" stop-opacity="0.06"/>
      <stop offset="1" stop-color="#000000" stop-opacity="0"/>
    </radialGradient>
    <radialGradient id="iconBackgroundVignette" cx="512" cy="512" r="720" gradientUnits="userSpaceOnUse">
      <stop offset="0.42" stop-color="#000000" stop-opacity="0"/>
      <stop offset="0.78" stop-color="#000000" stop-opacity="0.24"/>
      <stop offset="1" stop-color="#000000" stop-opacity="0.48"/>
    </radialGradient>
    <linearGradient id="iconBackgroundTopSheen" x1="90" y1="20" x2="920" y2="1010" gradientUnits="userSpaceOnUse">
      <stop offset="0" stop-color="#FFFFFF" stop-opacity="0.075"/>
      <stop offset="0.20" stop-color="#A8B8FF" stop-opacity="0.030"/>
      <stop offset="0.55" stop-color="#000000" stop-opacity="0"/>
      <stop offset="1" stop-color="#000000" stop-opacity="0.18"/>
    </linearGradient>
    <filter id="backgroundSoftBlur" x="-10%" y="-10%" width="120%" height="120%" color-interpolation-filters="sRGB">
      <feGaussianBlur stdDeviation="36"/>
    </filter>
    <linearGradient id="logoGradient" x1="190" y1="250" x2="845" y2="765" gradientUnits="userSpaceOnUse">
      <stop offset="0" stop-color="#28F8E5"/>
      <stop offset="0.33" stop-color="#06BDEB"/>
      <stop offset="0.58" stop-color="#2358FF"/>
      <stop offset="1" stop-color="#B323F5"/>
    </linearGradient>
    <linearGradient id="logoHighlight" x1="195" y1="250" x2="845" y2="760" gradientUnits="userSpaceOnUse">
      <stop offset="0" stop-color="#8FFFF5" stop-opacity="0.80"/>
      <stop offset="0.42" stop-color="#35D6FF" stop-opacity="0.38"/>
      <stop offset="1" stop-color="#FC5CFF" stop-opacity="0.55"/>
    </linearGradient>
    <linearGradient id="borderGradient" x1="80" y1="0" x2="930" y2="1024" gradientUnits="userSpaceOnUse">
      <stop offset="0" stop-color="#7381A8" stop-opacity="0.70"/>
      <stop offset="0.55" stop-color="#1C243E" stop-opacity="0.22"/>
      <stop offset="1" stop-color="#657097" stop-opacity="0.42"/>
    </linearGradient>
  </defs>

  <g id="layer-1-transparent-canvas">
    <rect x="0" y="0" width="1024" height="1024" fill="none" fill-opacity="0"/>
  </g>

  <g id="layer-2-icon-background-vector" clip-path="url(#iconBackgroundClip)">
    <rect x="3" y="3" width="1018" height="1018" rx="108" ry="108" fill="url(#iconBackgroundBase)"/>
    <ellipse cx="245" cy="555" rx="380" ry="445" fill="url(#iconBackgroundCyanGlow)" filter="url(#backgroundSoftBlur)"/>
    <ellipse cx="625" cy="290" rx="500" ry="350" fill="url(#iconBackgroundBlueGlow)" filter="url(#backgroundSoftBlur)"/>
    <ellipse cx="758" cy="520" rx="385" ry="410" fill="url(#iconBackgroundVioletGlow)" filter="url(#backgroundSoftBlur)"/>
    <rect x="3" y="3" width="1018" height="1018" rx="108" ry="108" fill="url(#iconBackgroundTopSheen)"/>
    <rect x="3" y="3" width="1018" height="1018" rx="108" ry="108" fill="url(#iconBackgroundVignette)"/>
  </g>

  <g id="icon-border" fill="none" pointer-events="none">
    <rect x="3" y="3" width="1018" height="1018" rx="106" stroke="url(#borderGradient)" stroke-width="2.3" opacity="0.82"/>
  </g>

  <g id="ug-logo-vector">
    <path d="M199.25,247.43 L199.25,510.37 L200.06,511.18 L200.06,523.43 L200.88,524.25 L200.88,529.96 L201.70,530.78 L201.70,535.68 L202.51,536.50 L204.15,547.93 L205.78,551.20 L205.78,553.65 L207.41,556.91 L207.41,559.36 L208.23,560.18 L210.68,569.16 L212.31,571.61 L212.31,573.24 L213.95,575.69 L213.95,577.33 L217.21,583.04 L217.21,584.68 L218.85,587.94 L220.48,589.58 L226.19,601.01 L234.36,613.26 L244.16,624.69 L244.16,625.51 L251.51,632.85 L251.51,633.67 L252.33,633.67 L262.94,644.29 L263.76,644.29 L274.37,653.27 L281.72,658.17 L284.17,658.99 L288.26,662.25 L293.97,664.70 L295.60,666.33 L302.14,669.60 L303.77,669.60 L307.85,672.05 L309.49,672.05 L313.57,674.50 L315.20,674.50 L323.37,677.77 L325.82,677.77 L329.08,679.40 L331.53,679.40 L335.62,681.03 L338.88,681.03 L342.97,682.67 L347.05,682.67 L347.87,683.48 L353.58,683.48 L354.40,684.30 L365.01,684.30 L365.83,685.12 L389.51,684.30 L390.33,683.48 L396.04,683.48 L396.86,682.67 L400.94,682.67 L401.76,681.85 L409.11,681.03 L409.93,680.22 L412.38,680.22 L421.36,676.95 L426.26,676.13 L428.71,674.50 L430.34,674.50 L432.79,672.87 L438.51,671.23 L449.94,665.52 L451.57,663.89 L454.02,663.07 L455.66,661.44 L458.11,660.62 L465.45,655.72 L468.72,652.45 L477.70,645.92 L489.95,633.67 L489.95,632.85 L498.12,623.87 L499.75,620.61 L505.47,613.26 L519.35,587.13 L519.35,585.49 L521.80,581.41 L521.80,579.78 L523.43,577.33 L523.43,575.69 L525.07,573.24 L525.07,571.61 L529.96,561.00 L532.41,552.83 L539.76,537.31 L539.76,535.68 L551.20,514.45 L562.63,498.12 L573.24,486.69 L573.24,485.87 L588.76,471.99 L603.46,462.19 L623.87,452.39 L625.51,452.39 L631.22,449.94 L633.67,449.94 L636.94,448.31 L645.10,447.49 L645.92,446.67 L650.00,446.67 L650.82,445.86 L676.95,445.86 L677.77,446.67 L683.48,446.67 L684.30,447.49 L691.65,448.31 L692.47,449.12 L697.37,449.94 L698.18,450.76 L702.26,451.57 L704.71,453.21 L708.80,454.02 L723.50,461.37 L733.30,467.90 L743.09,476.07 L841.90,476.07 L843.53,475.25 L843.53,473.62 L840.27,467.09 L840.27,465.45 L838.63,463.82 L838.63,462.19 L837.00,460.56 L830.47,447.49 L823.94,437.69 L821.49,435.24 L819.85,431.97 L814.14,425.44 L814.14,424.63 L809.24,419.73 L809.24,418.91 L787.19,397.68 L786.37,397.68 L773.31,387.06 L765.96,382.16 L763.51,381.35 L761.88,379.71 L759.43,378.90 L757.79,377.26 L738.19,367.46 L736.56,367.46 L730.03,364.20 L725.95,363.38 L723.50,361.75 L721.86,361.75 L718.60,360.11 L716.15,360.11 L712.88,358.48 L703.90,356.85 L703.08,356.03 L699.81,356.03 L699.00,355.22 L695.73,355.22 L694.92,354.40 L690.83,354.40 L690.02,353.58 L685.93,353.58 L685.12,352.77 L668.78,351.95 L667.97,351.13 L641.84,351.13 L641.02,351.95 L632.04,351.95 L631.22,352.77 L624.69,352.77 L623.87,353.58 L620.61,353.58 L619.79,354.40 L615.71,354.40 L614.89,355.22 L607.54,356.03 L606.72,356.85 L604.27,356.85 L603.46,357.67 L601.01,357.67 L600.19,358.48 L597.74,358.48 L594.48,360.11 L589.58,360.93 L587.13,362.56 L580.59,364.20 L578.14,365.83 L576.51,365.83 L574.06,367.46 L568.34,369.10 L555.28,375.63 L553.65,377.26 L549.56,378.90 L541.40,384.61 L538.95,385.43 L527.52,393.59 L519.35,400.94 L518.53,400.94 L511.18,408.29 L510.37,408.29 L502.20,416.46 L502.20,417.28 L495.67,423.81 L495.67,424.63 L485.87,436.06 L484.24,439.32 L481.79,441.77 L475.25,451.57 L471.17,459.74 L469.54,461.37 L456.47,487.50 L456.47,489.14 L450.76,500.57 L450.76,502.20 L448.31,506.28 L446.67,512.00 L434.42,535.68 L424.63,549.56 L410.74,562.63 L398.49,569.98 L396.86,569.98 L394.41,571.61 L392.78,571.61 L387.06,574.06 L379.71,574.88 L378.90,575.69 L359.30,575.69 L358.48,574.88 L351.13,574.06 L350.32,573.24 L343.78,571.61 L332.35,565.89 L325.82,561.00 L313.57,547.93 L305.40,533.23 L305.40,531.60 L302.95,525.88 L302.14,519.35 L301.32,518.53 L301.32,514.45 L300.50,513.63 L300.50,247.43 L297.24,244.98 L201.70,244.98 L200.06,245.79 Z M851.70,538.13 L850.88,536.50 L849.25,535.68 L690.83,535.68 L685.12,538.13 L680.22,544.66 L676.13,553.65 L674.50,555.28 L667.97,569.16 L666.33,570.79 L660.62,583.04 L658.99,584.68 L650.82,601.01 L650.82,604.27 L651.64,605.91 L654.90,608.36 L750.44,608.36 L755.34,611.62 L755.34,615.71 L754.53,616.52 L753.71,620.61 L747.18,633.67 L739.01,645.10 L725.13,658.99 L713.70,667.15 L696.55,675.32 L694.92,675.32 L684.30,679.40 L676.13,680.22 L675.32,681.03 L670.42,681.03 L669.60,681.85 L658.99,681.85 L658.17,682.67 L655.72,682.67 L654.90,681.85 L644.29,681.85 L643.47,681.03 L638.57,681.03 L637.75,680.22 L634.49,680.22 L633.67,679.40 L624.69,677.77 L622.24,676.13 L615.71,674.50 L601.01,667.15 L583.86,654.90 L565.89,636.12 L556.10,621.42 L547.11,602.64 L546.30,598.56 L544.66,596.11 L543.85,591.21 L542.21,590.39 L540.58,591.21 L539.76,594.48 L535.68,601.82 L535.68,603.46 L532.41,608.36 L529.15,615.71 L512.82,640.20 L498.12,656.54 L497.30,656.54 L489.14,664.70 L488.32,664.70 L480.97,671.23 L477.70,672.87 L476.07,674.50 L476.07,676.95 L479.34,681.85 L482.60,685.12 L486.69,691.65 L495.67,701.45 L495.67,702.26 L517.72,723.50 L521.80,725.95 L531.60,734.11 L534.05,734.93 L543.03,741.46 L566.71,753.71 L568.34,753.71 L578.96,758.61 L580.59,758.61 L588.76,761.88 L591.21,761.88 L594.48,763.51 L596.93,763.51 L601.01,765.14 L604.27,765.14 L608.36,766.78 L612.44,766.78 L613.26,767.59 L622.24,768.41 L623.06,769.22 L629.59,769.22 L630.41,770.04 L643.47,770.04 L644.29,770.86 L658.17,770.86 L658.99,770.04 L670.42,770.04 L671.23,769.22 L682.67,768.41 L683.48,767.59 L687.57,767.59 L688.38,766.78 L691.65,766.78 L692.47,765.96 L694.92,765.96 L695.73,765.14 L707.98,762.69 L708.80,761.88 L720.23,758.61 L722.68,756.98 L724.31,756.98 L730.85,753.71 L732.48,753.71 L750.44,744.73 L752.08,743.09 L754.53,742.28 L756.16,740.64 L758.61,739.83 L765.96,734.93 L779.02,724.31 L779.84,724.31 L799.44,705.53 L799.44,704.71 L803.52,700.63 L803.52,699.81 L812.50,689.20 L823.12,672.87 L825.57,667.15 L827.20,665.52 L829.65,660.62 L829.65,658.99 L834.55,650.00 L834.55,648.37 L837.82,641.84 L837.82,640.20 L842.72,627.14 L842.72,624.69 L844.35,621.42 L845.98,612.44 L846.80,611.62 L847.62,603.46 L848.43,602.64 L848.43,599.37 L849.25,598.56 L849.25,593.66 L850.07,592.84 L850.88,575.69 L851.70,574.88 Z" fill="url(#logoGradient)"/>
    <path d="M199.25,247.43 L199.25,510.37 L200.06,511.18 L200.06,523.43 L200.88,524.25 L200.88,529.96 L201.70,530.78 L201.70,535.68 L202.51,536.50 L204.15,547.93 L205.78,551.20 L205.78,553.65 L207.41,556.91 L207.41,559.36 L208.23,560.18 L210.68,569.16 L212.31,571.61 L212.31,573.24 L213.95,575.69 L213.95,577.33 L217.21,583.04 L217.21,584.68 L218.85,587.94 L220.48,589.58 L226.19,601.01 L234.36,613.26 L244.16,624.69 L244.16,625.51 L251.51,632.85 L251.51,633.67 L252.33,633.67 L262.94,644.29 L263.76,644.29 L274.37,653.27 L281.72,658.17 L284.17,658.99 L288.26,662.25 L293.97,664.70 L295.60,666.33 L302.14,669.60 L303.77,669.60 L307.85,672.05 L309.49,672.05 L313.57,674.50 L315.20,674.50 L323.37,677.77 L325.82,677.77 L329.08,679.40 L331.53,679.40 L335.62,681.03 L338.88,681.03 L342.97,682.67 L347.05,682.67 L347.87,683.48 L353.58,683.48 L354.40,684.30 L365.01,684.30 L365.83,685.12 L389.51,684.30 L390.33,683.48 L396.04,683.48 L396.86,682.67 L400.94,682.67 L401.76,681.85 L409.11,681.03 L409.93,680.22 L412.38,680.22 L421.36,676.95 L426.26,676.13 L428.71,674.50 L430.34,674.50 L432.79,672.87 L438.51,671.23 L449.94,665.52 L451.57,663.89 L454.02,663.07 L455.66,661.44 L458.11,660.62 L465.45,655.72 L468.72,652.45 L477.70,645.92 L489.95,633.67 L489.95,632.85 L498.12,623.87 L499.75,620.61 L505.47,613.26 L519.35,587.13 L519.35,585.49 L521.80,581.41 L521.80,579.78 L523.43,577.33 L523.43,575.69 L525.07,573.24 L525.07,571.61 L529.96,561.00 L532.41,552.83 L539.76,537.31 L539.76,535.68 L551.20,514.45 L562.63,498.12 L573.24,486.69 L573.24,485.87 L588.76,471.99 L603.46,462.19 L623.87,452.39 L625.51,452.39 L631.22,449.94 L633.67,449.94 L636.94,448.31 L645.10,447.49 L645.92,446.67 L650.00,446.67 L650.82,445.86 L676.95,445.86 L677.77,446.67 L683.48,446.67 L684.30,447.49 L691.65,448.31 L692.47,449.12 L697.37,449.94 L698.18,450.76 L702.26,451.57 L704.71,453.21 L708.80,454.02 L723.50,461.37 L733.30,467.90 L743.09,476.07 L841.90,476.07 L843.53,475.25 L843.53,473.62 L840.27,467.09 L840.27,465.45 L838.63,463.82 L838.63,462.19 L837.00,460.56 L830.47,447.49 L823.94,437.69 L821.49,435.24 L819.85,431.97 L814.14,425.44 L814.14,424.63 L809.24,419.73 L809.24,418.91 L787.19,397.68 L786.37,397.68 L773.31,387.06 L765.96,382.16 L763.51,381.35 L761.88,379.71 L759.43,378.90 L757.79,377.26 L738.19,367.46 L736.56,367.46 L730.03,364.20 L725.95,363.38 L723.50,361.75 L721.86,361.75 L718.60,360.11 L716.15,360.11 L712.88,358.48 L703.90,356.85 L703.08,356.03 L699.81,356.03 L699.00,355.22 L695.73,355.22 L694.92,354.40 L690.83,354.40 L690.02,353.58 L685.93,353.58 L685.12,352.77 L668.78,351.95 L667.97,351.13 L641.84,351.13 L641.02,351.95 L632.04,351.95 L631.22,352.77 L624.69,352.77 L623.87,353.58 L620.61,353.58 L619.79,354.40 L615.71,354.40 L614.89,355.22 L607.54,356.03 L606.72,356.85 L604.27,356.85 L603.46,357.67 L601.01,357.67 L600.19,358.48 L597.74,358.48 L594.48,360.11 L589.58,360.93 L587.13,362.56 L580.59,364.20 L578.14,365.83 L576.51,365.83 L574.06,367.46 L568.34,369.10 L555.28,375.63 L553.65,377.26 L549.56,378.90 L541.40,384.61 L538.95,385.43 L527.52,393.59 L519.35,400.94 L518.53,400.94 L511.18,408.29 L510.37,408.29 L502.20,416.46 L502.20,417.28 L495.67,423.81 L495.67,424.63 L485.87,436.06 L484.24,439.32 L481.79,441.77 L475.25,451.57 L471.17,459.74 L469.54,461.37 L456.47,487.50 L456.47,489.14 L450.76,500.57 L450.76,502.20 L448.31,506.28 L446.67,512.00 L434.42,535.68 L424.63,549.56 L410.74,562.63 L398.49,569.98 L396.86,569.98 L394.41,571.61 L392.78,571.61 L387.06,574.06 L379.71,574.88 L378.90,575.69 L359.30,575.69 L358.48,574.88 L351.13,574.06 L350.32,573.24 L343.78,571.61 L332.35,565.89 L325.82,561.00 L313.57,547.93 L305.40,533.23 L305.40,531.60 L302.95,525.88 L302.14,519.35 L301.32,518.53 L301.32,514.45 L300.50,513.63 L300.50,247.43 L297.24,244.98 L201.70,244.98 L200.06,245.79 Z M851.70,538.13 L850.88,536.50 L849.25,535.68 L690.83,535.68 L685.12,538.13 L680.22,544.66 L676.13,553.65 L674.50,555.28 L667.97,569.16 L666.33,570.79 L660.62,583.04 L658.99,584.68 L650.82,601.01 L650.82,604.27 L651.64,605.91 L654.90,608.36 L750.44,608.36 L755.34,611.62 L755.34,615.71 L754.53,616.52 L753.71,620.61 L747.18,633.67 L739.01,645.10 L725.13,658.99 L713.70,667.15 L696.55,675.32 L694.92,675.32 L684.30,679.40 L676.13,680.22 L675.32,681.03 L670.42,681.03 L669.60,681.85 L658.99,681.85 L658.17,682.67 L655.72,682.67 L654.90,681.85 L644.29,681.85 L643.47,681.03 L638.57,681.03 L637.75,680.22 L634.49,680.22 L633.67,679.40 L624.69,677.77 L622.24,676.13 L615.71,674.50 L601.01,667.15 L583.86,654.90 L565.89,636.12 L556.10,621.42 L547.11,602.64 L546.30,598.56 L544.66,596.11 L543.85,591.21 L542.21,590.39 L540.58,591.21 L539.76,594.48 L535.68,601.82 L535.68,603.46 L532.41,608.36 L529.15,615.71 L512.82,640.20 L498.12,656.54 L497.30,656.54 L489.14,664.70 L488.32,664.70 L480.97,671.23 L477.70,672.87 L476.07,674.50 L476.07,676.95 L479.34,681.85 L482.60,685.12 L486.69,691.65 L495.67,701.45 L495.67,702.26 L517.72,723.50 L521.80,725.95 L531.60,734.11 L534.05,734.93 L543.03,741.46 L566.71,753.71 L568.34,753.71 L578.96,758.61 L580.59,758.61 L588.76,761.88 L591.21,761.88 L594.48,763.51 L596.93,763.51 L601.01,765.14 L604.27,765.14 L608.36,766.78 L612.44,766.78 L613.26,767.59 L622.24,768.41 L623.06,769.22 L629.59,769.22 L630.41,770.04 L643.47,770.04 L644.29,770.86 L658.17,770.86 L658.99,770.04 L670.42,770.04 L671.23,769.22 L682.67,768.41 L683.48,767.59 L687.57,767.59 L688.38,766.78 L691.65,766.78 L692.47,765.96 L694.92,765.96 L695.73,765.14 L707.98,762.69 L708.80,761.88 L720.23,758.61 L722.68,756.98 L724.31,756.98 L730.85,753.71 L732.48,753.71 L750.44,744.73 L752.08,743.09 L754.53,742.28 L756.16,740.64 L758.61,739.83 L765.96,734.93 L779.02,724.31 L779.84,724.31 L799.44,705.53 L799.44,704.71 L803.52,700.63 L803.52,699.81 L812.50,689.20 L823.12,672.87 L825.57,667.15 L827.20,665.52 L829.65,660.62 L829.65,658.99 L834.55,650.00 L834.55,648.37 L837.82,641.84 L837.82,640.20 L842.72,627.14 L842.72,624.69 L844.35,621.42 L845.98,612.44 L846.80,611.62 L847.62,603.46 L848.43,602.64 L848.43,599.37 L849.25,598.56 L849.25,593.66 L850.07,592.84 L850.88,575.69 L851.70,574.88 Z" fill="none" stroke="url(#logoHighlight)" stroke-width="2.5" stroke-linejoin="round" opacity="0.55"/>
  </g>
</svg>
